<svg id="Layer_1" data-name="Layer 1" xmlns="http://www.w3.org/2000/svg" viewBox="0 0 245 109"><defs><style>.cls-1{fill:none;}.cls-2{isolation:isolate;}.cls-3{fill:#2f2f2f;}.cls-4{fill:#d83b01;}</style></defs><title>Office365P&amp;amp;P</title><rect class="cls-1" width="245" height="109"/><g class="cls-2"><g class="cls-2"><path class="cls-3" d="M25.25,78.65V85h-2V68.2H27.9a6.07,6.07,0,0,1,4.18,1.31,4.67,4.67,0,0,1,1.48,3.7,5.11,5.11,0,0,1-1.65,3.92,6.3,6.3,0,0,1-4.44,1.52Zm0-8.67v6.89h2.06a4.65,4.65,0,0,0,3.12-.93A3.33,3.33,0,0,0,31.5,73.3Q31.5,70,27.56,70Z"/><path class="cls-3" d="M43.76,85H41.83V83.13h0a4,4,0,0,1-3.69,2.15,4,4,0,0,1-2.81-1,3.26,3.26,0,0,1-1-2.52q0-3.36,4-3.91l3.59-.51c0-2-.82-3-2.47-3a5.91,5.91,0,0,0-3.91,1.47v-2a7.44,7.44,0,0,1,4.08-1.12q4.23,0,4.23,4.48Zm-1.93-6.07-2.89.4a4.64,4.64,0,0,0-2,.66,1.92,1.92,0,0,0-.68,1.68,1.83,1.83,0,0,0,.63,1.44,2.44,2.44,0,0,0,1.67.55,3.08,3.08,0,0,0,2.36-1,3.58,3.58,0,0,0,.93-2.53Z"/><path class="cls-3" d="M52.46,84.88a3.69,3.69,0,0,1-1.79.38q-3.15,0-3.15-3.52v-7.1H45.46V73h2.06V70.07l1.92-.62V73h3v1.64h-3V81.4a2.85,2.85,0,0,0,.41,1.73,1.65,1.65,0,0,0,1.36.51,2,2,0,0,0,1.25-.4Z"/><path class="cls-3" d="M60.12,84.88a3.73,3.73,0,0,1-1.8.38q-3.15,0-3.15-3.52v-7.1H53.11V73h2.06V70.07l1.92-.62V73h3v1.64h-3V81.4a2.85,2.85,0,0,0,.41,1.73,1.66,1.66,0,0,0,1.36.51,2,2,0,0,0,1.26-.4Z"/><path class="cls-3" d="M71.85,79.48H63.38a4.49,4.49,0,0,0,1.07,3.09,3.72,3.72,0,0,0,2.84,1.09A5.92,5.92,0,0,0,71,82.33v1.8a7,7,0,0,1-4.19,1.15,5.05,5.05,0,0,1-4-1.63,6.7,6.7,0,0,1-1.46-4.6A6.57,6.57,0,0,1,63,74.48a5.1,5.1,0,0,1,3.94-1.76,4.54,4.54,0,0,1,3.65,1.52,6.36,6.36,0,0,1,1.29,4.23Zm-2-1.63a4,4,0,0,0-.8-2.59,2.73,2.73,0,0,0-2.2-.92,3.09,3.09,0,0,0-2.31,1,4.43,4.43,0,0,0-1.17,2.54Z"/><path class="cls-3" d="M80.53,75a2.32,2.32,0,0,0-1.45-.39A2.47,2.47,0,0,0,77,75.72a5.36,5.36,0,0,0-.82,3.16V85H74.27V73H76.2v2.47h0a4.18,4.18,0,0,1,1.26-2,2.86,2.86,0,0,1,1.88-.71,3.13,3.13,0,0,1,1.15.16Z"/><path class="cls-3" d="M92.1,85H90.18V78.16q0-3.82-2.79-3.82A3,3,0,0,0,85,75.42a4,4,0,0,0-.94,2.74V85H82.14V73h1.92v2h0A4.33,4.33,0,0,1,88,72.72a3.68,3.68,0,0,1,3,1.27,5.69,5.69,0,0,1,1,3.67Z"/><path class="cls-3" d="M94.51,84.57V82.5A5.66,5.66,0,0,0,98,83.66c1.69,0,2.53-.56,2.53-1.68a1.44,1.44,0,0,0-.22-.82,2.16,2.16,0,0,0-.58-.59,4.44,4.44,0,0,0-.87-.46l-1.07-.43a12.48,12.48,0,0,1-1.4-.64,4.16,4.16,0,0,1-1-.73,2.69,2.69,0,0,1-.61-.92,3.14,3.14,0,0,1-.2-1.2,3,3,0,0,1,.38-1.5,3.56,3.56,0,0,1,1-1.09,4.87,4.87,0,0,1,1.48-.66,6.39,6.39,0,0,1,1.7-.22,6.87,6.87,0,0,1,2.79.54V75.2a5.5,5.5,0,0,0-3-.86,3.63,3.63,0,0,0-1,.12,2.41,2.41,0,0,0-.74.34,1.54,1.54,0,0,0-.48.54,1.3,1.3,0,0,0-.17.68,1.57,1.57,0,0,0,.17.79,1.61,1.61,0,0,0,.49.56,4,4,0,0,0,.8.45l1.07.43a13.87,13.87,0,0,1,1.43.63,4.55,4.55,0,0,1,1.07.72,2.76,2.76,0,0,1,.69.94,3,3,0,0,1,.24,1.25,3,3,0,0,1-.39,1.55,3.41,3.41,0,0,1-1,1.09,5,5,0,0,1-1.51.64,7.52,7.52,0,0,1-1.8.21A6.91,6.91,0,0,1,94.51,84.57Z"/><path class="cls-3" d="M126,85.27a3.27,3.27,0,0,1-2.13-.7,5.71,5.71,0,0,1-.83-.81c-.27-.32-.56-.69-.85-1.09a9.5,9.5,0,0,1-1.09,1,8,8,0,0,1-1.36.83,8.14,8.14,0,0,1-1.64.58,8,8,0,0,1-1.94.22,8.13,8.13,0,0,1-2.32-.32,5.12,5.12,0,0,1-1.8-.93,4.19,4.19,0,0,1-1.17-1.52,5,5,0,0,1-.41-2.07,4.71,4.71,0,0,1,1-3.06,7.25,7.25,0,0,1,2.88-2.08,6.5,6.5,0,0,1-.7-.61,4,4,0,0,1-.63-.78,4.88,4.88,0,0,1-.45-1,4.09,4.09,0,0,1,.17-2.8,3.45,3.45,0,0,1,.92-1.21,3.82,3.82,0,0,1,1.38-.74,5.63,5.63,0,0,1,1.72-.26,5.18,5.18,0,0,1,1.67.26,3.5,3.5,0,0,1,1.3.72,3.12,3.12,0,0,1,.85,1.12,3.37,3.37,0,0,1,.31,1.47,3.47,3.47,0,0,1-.8,2.33,6.21,6.21,0,0,1-2.41,1.59,6.77,6.77,0,0,1,1.46.78,8.46,8.46,0,0,1,1.22,1,10.84,10.84,0,0,1,1,1.2c.32.43.64.88.95,1.34a9.92,9.92,0,0,0,1.43-2.92,11.53,11.53,0,0,0,.48-3.34,7.3,7.3,0,0,0-.05-.84q-.06-.39-.15-.78H126a5.31,5.31,0,0,1,.11.74c0,.23,0,.5,0,.82a10.55,10.55,0,0,1-.23,2.15,13.49,13.49,0,0,1-.59,2.09,14.06,14.06,0,0,1-.88,1.93,16.47,16.47,0,0,1-1,1.67c.27.38.52.7.75,1a4.55,4.55,0,0,0,.68.7,2.39,2.39,0,0,0,1.55.55,2.55,2.55,0,0,0,.72-.1c.24-.06.49-.14.75-.23v1.78a5.07,5.07,0,0,1-.89.25A5.57,5.57,0,0,1,126,85.27Zm-9.84-1.66a6.46,6.46,0,0,0,1.64-.2,6.32,6.32,0,0,0,2.54-1.26,10,10,0,0,0,.93-.9c-.47-.74-.91-1.38-1.32-1.9A10.43,10.43,0,0,0,118.77,78a7.28,7.28,0,0,0-1.32-1,10.53,10.53,0,0,0-1.61-.77,13.23,13.23,0,0,0-1.36.65,4.51,4.51,0,0,0-1.07.85,3.55,3.55,0,0,0-.71,1.13,4.08,4.08,0,0,0-.26,1.51,3.18,3.18,0,0,0,.3,1.41,2.83,2.83,0,0,0,.8,1,3.62,3.62,0,0,0,1.19.61A4.91,4.91,0,0,0,116.19,83.61Zm2.93-12a2.2,2.2,0,0,0-.21-1,2.11,2.11,0,0,0-1.3-1.07,2.84,2.84,0,0,0-.81-.12,2.65,2.65,0,0,0-1.83.62,2.2,2.2,0,0,0-.7,1.69,2.66,2.66,0,0,0,.15.9,3.13,3.13,0,0,0,.41.79,3.36,3.36,0,0,0,.61.64,4.32,4.32,0,0,0,.75.48,6.11,6.11,0,0,0,2.21-1.2A2.29,2.29,0,0,0,119.12,71.64Z"/><path class="cls-3" d="M138.08,78.65V85h-2V68.2h4.61a6.07,6.07,0,0,1,4.18,1.31,4.67,4.67,0,0,1,1.48,3.7,5.14,5.14,0,0,1-1.64,3.92,6.32,6.32,0,0,1-4.45,1.52Zm0-8.67v6.89h2.07a4.62,4.62,0,0,0,3.11-.93,3.33,3.33,0,0,0,1.07-2.64q0-3.31-3.94-3.32Z"/><path class="cls-3" d="M155.08,75a2.34,2.34,0,0,0-1.45-.39,2.45,2.45,0,0,0-2.06,1.16,5.36,5.36,0,0,0-.83,3.16V85h-1.92V73h1.92v2.47h0a4.17,4.17,0,0,1,1.25-2,2.89,2.89,0,0,1,1.89-.71,3.16,3.16,0,0,1,1.15.16Z"/><path class="cls-3" d="M165.27,85h-1.92V83.13h0a4,4,0,0,1-3.69,2.15,3.94,3.94,0,0,1-2.8-1,3.27,3.27,0,0,1-1-2.52q0-3.36,4-3.91l3.6-.51c0-2-.82-3-2.47-3A5.94,5.94,0,0,0,157,75.81v-2A7.44,7.44,0,0,1,161,72.72q4.23,0,4.23,4.48Zm-1.92-6.07-2.89.4a4.6,4.6,0,0,0-2,.66,1.92,1.92,0,0,0-.68,1.68,1.83,1.83,0,0,0,.63,1.44,2.42,2.42,0,0,0,1.67.55,3.08,3.08,0,0,0,2.36-1,3.58,3.58,0,0,0,.93-2.53Z"/><path class="cls-3" d="M176.59,84.45a6.27,6.27,0,0,1-3.28.83,5.44,5.44,0,0,1-4.14-1.67,6.06,6.06,0,0,1-1.58-4.33,6.65,6.65,0,0,1,1.7-4.76,6,6,0,0,1,4.54-1.8,6.36,6.36,0,0,1,2.79.58v2a4.93,4.93,0,0,0-2.86-.93,3.89,3.89,0,0,0-3,1.31,5,5,0,0,0-1.18,3.47,4.78,4.78,0,0,0,1.11,3.33,3.82,3.82,0,0,0,3,1.21,4.77,4.77,0,0,0,3-1Z"/><path class="cls-3" d="M184.59,84.88a3.73,3.73,0,0,1-1.8.38q-3.15,0-3.15-3.52v-7.1h-2.06V73h2.06V70.07l1.92-.62V73h3v1.64h-3V81.4a2.85,2.85,0,0,0,.41,1.73,1.66,1.66,0,0,0,1.36.51,2,2,0,0,0,1.26-.4Z"/><path class="cls-3" d="M187.66,70a1.21,1.21,0,0,1-1.24-1.24,1.21,1.21,0,0,1,1.24-1.25,1.25,1.25,0,0,1,.89.35,1.19,1.19,0,0,1,.37.9,1.18,1.18,0,0,1-.37.88A1.21,1.21,0,0,1,187.66,70Zm.93,15h-1.92V73h1.92Z"/><path class="cls-3" d="M200.19,84.45a6.33,6.33,0,0,1-3.29.83,5.44,5.44,0,0,1-4.14-1.67,6.05,6.05,0,0,1-1.57-4.33,6.65,6.65,0,0,1,1.69-4.76,6,6,0,0,1,4.54-1.8,6.36,6.36,0,0,1,2.79.58v2a4.9,4.9,0,0,0-2.86-.93,3.89,3.89,0,0,0-3,1.31,5,5,0,0,0-1.18,3.47,4.78,4.78,0,0,0,1.11,3.33,3.82,3.82,0,0,0,3,1.21,4.81,4.81,0,0,0,3-1Z"/><path class="cls-3" d="M212.26,79.48h-8.48a4.44,4.44,0,0,0,1.08,3.09,3.71,3.71,0,0,0,2.84,1.09,5.87,5.87,0,0,0,3.72-1.33v1.8a6.92,6.92,0,0,1-4.18,1.15,5.07,5.07,0,0,1-4-1.63,6.75,6.75,0,0,1-1.45-4.6,6.57,6.57,0,0,1,1.59-4.57,5.1,5.1,0,0,1,3.94-1.76A4.54,4.54,0,0,1,211,74.24a6.36,6.36,0,0,1,1.29,4.23Zm-2-1.63a3.91,3.91,0,0,0-.81-2.59,2.71,2.71,0,0,0-2.19-.92,3.09,3.09,0,0,0-2.31,1,4.43,4.43,0,0,0-1.17,2.54Z"/><path class="cls-3" d="M214,84.57V82.5a5.63,5.63,0,0,0,3.45,1.16c1.69,0,2.53-.56,2.53-1.68a1.51,1.51,0,0,0-.21-.82,2.21,2.21,0,0,0-.59-.59,3.94,3.94,0,0,0-.87-.46l-1.07-.43a12.48,12.48,0,0,1-1.4-.64,4.16,4.16,0,0,1-1-.73,2.69,2.69,0,0,1-.61-.92,3.35,3.35,0,0,1-.2-1.2,2.89,2.89,0,0,1,.39-1.5,3.45,3.45,0,0,1,1-1.09,4.92,4.92,0,0,1,1.47-.66,6.45,6.45,0,0,1,1.7-.22,6.87,6.87,0,0,1,2.79.54V75.2a5.49,5.49,0,0,0-3-.86,3.7,3.7,0,0,0-1,.12,2.53,2.53,0,0,0-.74.34,1.54,1.54,0,0,0-.48.54A1.3,1.3,0,0,0,216,76a1.57,1.57,0,0,0,.17.79,1.65,1.65,0,0,0,.5.56,3.65,3.65,0,0,0,.79.45l1.07.43a13,13,0,0,1,1.43.63,4.84,4.84,0,0,1,1.08.72,2.87,2.87,0,0,1,.68.94,3,3,0,0,1,.24,1.25,3,3,0,0,1-.39,1.55,3.41,3.41,0,0,1-1.05,1.09,5,5,0,0,1-1.51.64,7.5,7.5,0,0,1-1.79.21A6.85,6.85,0,0,1,214,84.57Z"/></g></g><g class="cls-2"><g class="cls-2"><path class="cls-4" d="M36.77,57.56q-7.28,0-11.64-4.71T20.76,40.59q0-8.1,4.45-12.93t12.1-4.83a14.77,14.77,0,0,1,11.4,4.69Q53,32.2,53,39.77q0,8.23-4.43,13T36.77,57.56ZM37,27.73a9.37,9.37,0,0,0-7.51,3.44,13.63,13.63,0,0,0-2.89,9.07,13.81,13.81,0,0,0,2.81,9,9.08,9.08,0,0,0,7.36,3.42,9.51,9.51,0,0,0,7.62-3.26q2.79-3.26,2.79-9.12c0-4-.91-7.11-2.71-9.3A9.14,9.14,0,0,0,37,27.73Z"/><path class="cls-4" d="M70.48,25.9A5,5,0,0,0,68,25.27q-4,0-4,4.47V33h5.58v4.27H64V57H58.59V37.27h-4.1V33h4.1V29.11a7.57,7.57,0,0,1,2.49-6,9.06,9.06,0,0,1,6.21-2.19,9.16,9.16,0,0,1,3.19.45Z"/><path class="cls-4" d="M85.34,25.9a4.94,4.94,0,0,0-2.5-.63q-4,0-4,4.47V33h5.57v4.27H78.9V57H73.46V37.27h-4.1V33h4.1V29.11a7.57,7.57,0,0,1,2.49-6,10.35,10.35,0,0,1,9.39-1.74Z"/><path class="cls-4" d="M89.38,28a3.25,3.25,0,0,1-2.28-.87,2.85,2.85,0,0,1-.95-2.2,3,3,0,0,1,.95-2.23,3.22,3.22,0,0,1,2.28-.89,3.34,3.34,0,0,1,2.35.89,2.93,2.93,0,0,1,1,2.23,2.88,2.88,0,0,1-1,2.17A3.3,3.3,0,0,1,89.38,28Zm2.7,29H86.64V33h5.44Z"/><path class="cls-4" d="M114.68,55.9a13.41,13.41,0,0,1-6.82,1.66,11.56,11.56,0,0,1-8.63-3.34A11.84,11.84,0,0,1,96,45.56,13,13,0,0,1,99.48,36a12.61,12.61,0,0,1,9.43-3.6,13.69,13.69,0,0,1,5.79,1.15v5.06a8.76,8.76,0,0,0-5.34-1.88,7.41,7.41,0,0,0-5.65,2.34,8.51,8.51,0,0,0-2.2,6.1,8.11,8.11,0,0,0,2.07,5.88,7.36,7.36,0,0,0,5.57,2.16,8.7,8.7,0,0,0,5.53-2.09Z"/><path class="cls-4" d="M138.71,46.48H122.35a6.91,6.91,0,0,0,2.05,5.13,7.66,7.66,0,0,0,5.38,1.8,11.88,11.88,0,0,0,7.06-2.29V55.5a16.09,16.09,0,0,1-8.68,2.06,10.71,10.71,0,0,1-8.3-3.27q-3-3.27-3-9.2A12.82,12.82,0,0,1,120.16,36a10.85,10.85,0,0,1,8.24-3.52A9.47,9.47,0,0,1,136,35.6q2.68,3.16,2.69,8.79Zm-5.25-3.85a7,7,0,0,0-1.38-4.56,4.64,4.64,0,0,0-3.75-1.62,5.27,5.27,0,0,0-4,1.71,7.79,7.79,0,0,0-2,4.47Z"/></g><g class="cls-2"><path class="cls-4" d="M151.39,55.76V50.65a11.65,11.65,0,0,0,7.41,2.6,8.65,8.65,0,0,0,5.35-1.52,4.91,4.91,0,0,0,2-4.13q0-5.72-8.75-5.72h-2.6V37.52h2.49q7.75,0,7.75-5.39,0-5-6-5a9.91,9.91,0,0,0-6.35,2.42V24.75a16.23,16.23,0,0,1,8.08-1.92,10.8,10.8,0,0,1,7.17,2.25,7.16,7.16,0,0,1,2.7,5.76q0,6.65-6.75,8.54v.09A8.83,8.83,0,0,1,169.6,42a7.57,7.57,0,0,1,2.11,5.47,9,9,0,0,1-3.4,7.31,13.7,13.7,0,0,1-8.95,2.77A15.3,15.3,0,0,1,151.39,55.76Z"/><path class="cls-4" d="M198.44,46.2a12.24,12.24,0,0,1-.84,4.61,10.7,10.7,0,0,1-2.31,3.6,10.16,10.16,0,0,1-3.5,2.34,11.37,11.37,0,0,1-4.39.84,10.91,10.91,0,0,1-4.66-1,9.86,9.86,0,0,1-3.65-2.93,13.87,13.87,0,0,1-2.38-4.84,24.17,24.17,0,0,1-.84-6.71A28.22,28.22,0,0,1,177,33.84a18.05,18.05,0,0,1,3.06-6,13.06,13.06,0,0,1,4.57-3.71,12.93,12.93,0,0,1,5.67-1.26,20.47,20.47,0,0,1,3.46.26,9.28,9.28,0,0,1,2.49.7v4.9a15.62,15.62,0,0,0-2.55-1,10.6,10.6,0,0,0-3.12-.43,8.32,8.32,0,0,0-3.63.8,8,8,0,0,0-2.87,2.33,11.47,11.47,0,0,0-1.9,3.8,18.59,18.59,0,0,0-.72,5.22h.14a7.65,7.65,0,0,1,2.92-2.63,9.25,9.25,0,0,1,4.33-1,10.67,10.67,0,0,1,4,.71,8.31,8.31,0,0,1,3,2.07,9.21,9.21,0,0,1,1.94,3.28A13.15,13.15,0,0,1,198.44,46.2Zm-5.49.44a9.56,9.56,0,0,0-.34-2.65,5.82,5.82,0,0,0-1-2.05,4.62,4.62,0,0,0-1.73-1.32,6.51,6.51,0,0,0-4.93,0A5.58,5.58,0,0,0,183.13,42,5.48,5.48,0,0,0,182,43.85a6.62,6.62,0,0,0-.36,2.16,9.27,9.27,0,0,0,.34,2.45,7.38,7.38,0,0,0,1,2.28,5.81,5.81,0,0,0,1.79,1.7,4.83,4.83,0,0,0,2.59.67,5.43,5.43,0,0,0,2.37-.49,4.79,4.79,0,0,0,1.72-1.36,6.13,6.13,0,0,0,1.06-2A8.82,8.82,0,0,0,193,46.64Z"/><path class="cls-4" d="M202.22,56.23V51a11.9,11.9,0,0,0,6.7,2.23,8.33,8.33,0,0,0,5.51-1.75,5.74,5.74,0,0,0,2.08-4.65,5.22,5.22,0,0,0-2.12-4.45,9.92,9.92,0,0,0-6.08-1.6c-.91,0-2.74.1-5.51.28L204,23.39h16.54V28h-12L208,36.45c1.08-.07,2-.1,2.93-.1,3.56,0,6.32.92,8.26,2.74a9.78,9.78,0,0,1,2.92,7.5,10.26,10.26,0,0,1-3.34,8q-3.34,3-9.18,3Q204.63,57.61,202.22,56.23Z"/></g></g></svg>